<svg viewBox="0 0 24 24" height="24" width="24" xmlns="http://www.w3.org/2000/svg" xml:space="preserve" style="fill-rule:evenodd;clip-rule:evenodd;stroke-linejoin:round;stroke-miterlimit:2"><path d="M6 23a2.894 2.894 0 0 1-2.125-.875A2.894 2.894 0 0 1 3 20c0-.833.292-1.542.875-2.125A2.894 2.894 0 0 1 6 17c.233 0 .45.025.65.075.2.05.392.117.575.2L8.65 15.5a4.335 4.335 0 0 1-.975-1.75 4.56 4.56 0 0 1-.125-1.95l-2.025-.675c-.283.417-.642.75-1.075 1-.433.25-.917.375-1.45.375a2.894 2.894 0 0 1-2.125-.875A2.894 2.894 0 0 1 0 9.5c0-.833.292-1.542.875-2.125A2.894 2.894 0 0 1 3 6.5c.833 0 1.542.292 2.125.875S6 8.667 6 9.5v.2l2.025.7c.333-.6.779-1.108 1.338-1.525a4.284 4.284 0 0 1 1.887-.8V5.9a3.107 3.107 0 0 1-1.612-1.063A2.83 2.83 0 0 1 9 3c0-.833.292-1.542.875-2.125A2.894 2.894 0 0 1 12 0c.833 0 1.542.292 2.125.875S15 2.167 15 3c0 .7-.217 1.313-.65 1.837-.433.526-.967.88-1.6 1.063v2.175c.7.117 1.329.383 1.888.8a4.785 4.785 0 0 1 1.337 1.525L18 9.7v-.2c0-.833.292-1.542.875-2.125A2.894 2.894 0 0 1 21 6.5c.833 0 1.542.292 2.125.875S24 8.667 24 9.5s-.292 1.542-.875 2.125A2.894 2.894 0 0 1 21 12.5a2.985 2.985 0 0 1-2.525-1.375l-2.025.675c.1.65.058 1.296-.125 1.937a4.546 4.546 0 0 1-.975 1.763l1.425 1.75c.183-.083.375-.146.575-.187.2-.042.417-.063.65-.063.833 0 1.542.292 2.125.875S21 19.167 21 20s-.292 1.542-.875 2.125A2.894 2.894 0 0 1 18 23a2.894 2.894 0 0 1-2.125-.875A2.894 2.894 0 0 1 15 20c0-.333.054-.654.163-.962.108-.309.254-.588.437-.838l-1.425-1.775a4.402 4.402 0 0 1-2.187.575 4.406 4.406 0 0 1-2.188-.575L8.4 18.2c.183.25.329.529.438.838.108.308.162.629.162.962 0 .833-.292 1.542-.875 2.125A2.894 2.894 0 0 1 6 23Z" style="fill:#fff;fill-rule:nonzero" transform="matrix(.83333 0 0 .83333 2 2.4)"/></svg>